<svg xmlns="http://www.w3.org/2000/svg" width="293.951" height="45" viewBox="0 0 293.951 45"><g id="Group_6804" data-name="Group 6804" transform="translate(242 -259.594)"><path id="Path_8870" data-name="Path 8870" d="M138.319,3.778A18.722,18.722,0,1,1,119.6,22.5,18.744,18.744,0,0,1,138.319,3.778m0-3.778a22.5,22.5,0,1,0,22.5,22.5A22.5,22.5,0,0,0,138.319,0" transform="translate(-151.979 259.594)" fill="#0f9bd8"></path><path id="Path_8871" data-name="Path 8871" d="M172,14.4H112.233a1.2,1.2,0,0,1,0-2.4H172a1.2,1.2,0,0,1,0,2.4" transform="translate(-155.7 268.915)" fill="#0f9bd8"></path><path id="Path_8872" data-name="Path 8872" d="M19.249.913,2.175.909A2.078,2.078,0,0,0,0,2.98V40.73A2.078,2.078,0,0,0,2.175,42.8H19.2l.053,0c10.841-.759,18.793-9.562,18.9-20.929.11-11.184-8.017-20.193-18.9-20.956M4.351,5.05H19.018C27.588,5.724,33.8,12.758,33.8,21.8v.114c0,10.239-7.429,16.166-14.785,16.747H4.351Z" transform="translate(-242 260.3)" fill="#03364e"></path><path id="Path_8873" data-name="Path 8873" d="M29.136.909H27.783a1.5,1.5,0,0,0-1.5,1.5V41.3a1.5,1.5,0,0,0,1.5,1.5h1.352a1.5,1.5,0,0,0,1.5-1.5V2.407a1.5,1.5,0,0,0-1.5-1.5" transform="translate(-221.57 260.3)" fill="#03364e"></path><path id="Path_8874" data-name="Path 8874" d="M126.408,30.722h-1.495a1.475,1.475,0,0,0-1.214.64l-.2.286a.477.477,0,0,0-.032.05c-2.115,3.371-7.863,6.956-14.346,6.956a16.789,16.789,0,0,1,0-33.578c6.363,0,12.21,3.542,14.188,6.969l.059.092.2.286a1.47,1.47,0,0,0,1.216.642h1.429a1.471,1.471,0,0,0,1.3-2.161l-.48-.9C124.069,4.866,116.371.992,109.126.992a20.874,20.874,0,1,0,0,41.746c7.992,0,15.1-4.468,18.02-8.925l.519-.857a1.471,1.471,0,0,0-1.257-2.234" transform="translate(-173.526 260.365)" fill="#03364e"></path><path id="Path_8875" data-name="Path 8875" d="M42.153,2.272A4.183,4.183,0,0,0,37.6,1.04a3.98,3.98,0,0,0-2.773,3.789V41.547a2.165,2.165,0,0,0,4.329,0V5.389L70.385,42a4.172,4.172,0,0,0,4.552,1.23,3.976,3.976,0,0,0,2.773-3.787V2.846a2.165,2.165,0,0,0-4.329,0V38.883" transform="translate(-214.929 260.148)" fill="#03364e"></path><path id="Path_8876" data-name="Path 8876" d="M176.755,39.32l-22.127.076a2.392,2.392,0,0,1-1.656-.645,2.018,2.018,0,0,1-.656-1.488V2.846a2.165,2.165,0,0,0-4.329,0V37.264a6.241,6.241,0,0,0,1.982,4.56,6.733,6.733,0,0,0,4.658,1.839h.023l22.122-.076a2.134,2.134,0,1,0-.016-4.267" transform="translate(-126.976 260.148)" fill="#03364e"></path><path id="Path_8877" data-name="Path 8877" d="M67.351,43.68a2.151,2.151,0,0,1-2.15-2.15V4.982a4.262,4.262,0,0,1,7.511-2.76l31.976,37.765a2.15,2.15,0,1,1-3.277,2.783L69.434,5.007,69.5,41.53a2.151,2.151,0,0,1-2.15,2.15" transform="translate(-191.322 260.147)" fill="#03364e"></path></g></svg>